<?xml version="1.0"?><svg xmlns="http://www.w3.org/2000/svg" width="20" height="20" viewBox="0 0 20 20"><title>Comic Chat 20 pixel avatar document</title><defs><linearGradient id="p" x2="1" y2="1"><stop stop-color="#fffdf7"/><stop offset="1" stop-color="#ded7c9"/></linearGradient></defs>
  <path d="M3.2 1.2h10.4l3 3v14.6H3.2Z" fill="url(#p)" stroke="#20252c" stroke-width="1"/><path d="M13.6 1.2v3h3" fill="#c1c5cc" stroke="#20252c" stroke-width=".85"/>
  <path d="m5.1 14.7-.4 3.2c1.45 1 3.9 1.05 5.4.05l-.7-3Z" fill="#20252c"/><path d="M4.7 10.2c-1.4-2.1-.55-4.7 1.55-5.9 1.5-.85 3.7-.9 4.9-.1.5.35.65.8.5 1.3 1.15.3 2.15.9 2.65 1.8-1-.4-1.8-.35-2.5-.1.75.4 1.25.85 1.55 1.4-.95-.35-1.75-.45-2.45-.2l.45.8c-1-.5-1.9-.7-2.9-.55-1 1-2.65 2.4-3.75 1.55Z" fill="#20252c" stroke="#20252c" stroke-width=".55"/>
  <path d="M8 8.4c.75-.7 1.75-.7 2.35-.05.4.35.55.8.6 1.3l1.7 1.55c.25.2.15.5-.15.6l-1.2.3c.3.45.2.8-.2 1.05-.25.15-.5.2-.8.15.2.5.05.95-.35 1.2-.25.2-.55.3-.85.3-.2.3-.5.5-.85.6-1.15-.6-1.5-1.65-1.35-3.25.1-1.4.45-2.7 1.1-3.8Z" fill="url(#p)" stroke="#20252c" stroke-width=".75"/><path d="m7.5 8.5.45.8.4-.65.45.6.45-.7.45.65.5-.65" fill="#20252c" stroke="#20252c" stroke-width=".32"/><path d="m8.95 9.25 1.05.18" stroke="#20252c" stroke-width=".4"/><ellipse cx="9.75" cy="9.8" rx=".66" ry=".57" fill="#20252c" stroke="#20252c" stroke-width=".35"/><circle cx="9.6" cy="9.62" r=".13" fill="#c1c5cc"/><path d="m10.05 11.85.72.15.93-.17-.27.5-.56.27-.52-.24Z" fill="#20252c"/><path d="M9.85 14.5c.4.14.75-.04.98-.38.04.47-.05.87-.28 1.2-.17-.27-.38-.42-.63-.42Z" fill="#20252c"/>
</svg>
