<?xml version="1.0"?><svg xmlns="http://www.w3.org/2000/svg" width="20" height="20" viewBox="0 0 20 20"><title>Comic Chat 20 pixel avatar document</title><defs><linearGradient id="p" x2="1" y2="1"><stop stop-color="#fffdf7"/><stop offset="1" stop-color="#ded7c9"/></linearGradient></defs>
  <path d="M3.2 1.2h10.4l3 3v14.6H3.2Z" fill="url(#p)" stroke="#20252c" stroke-width="1"/><path d="M13.6 1.2v3h3" fill="#c1c5cc" stroke="#20252c" stroke-width=".85"/>
  <path d="m5.1 14.7-.4 3.2c1.45 1 3.9 1.05 5.4.05l-.7-3Z" fill="#20252c"/><path d="M4.7 10.2c-1.4-2.1-.55-4.7 1.55-5.9 1.5-.85 3.7-.9 4.9-.1.5.35.65.8.5 1.3 1.15.3 2.15.9 2.65 1.8-1-.4-1.8-.35-2.5-.1.75.4 1.25.85 1.55 1.4-.95-.35-1.75-.45-2.45-.2l.45.8c-1-.5-1.9-.7-2.9-.55-1 1-2.65 2.4-3.75 1.55Z" fill="#20252c" stroke="#20252c" stroke-width=".55"/>
  <path d="M8 8.4c.75-.7 1.75-.7 2.35-.05.4.35.55.8.6 1.3l1.7 1.55c.25.2.15.5-.15.6l-1.2.3c.3.45.2.8-.2 1.05-.25.15-.5.2-.8.15.2.5.05.95-.35 1.2-.25.2-.55.3-.85.3-.2.3-.5.5-.85.6-1.15-.6-1.5-1.65-1.35-3.25.1-1.4.45-2.7 1.1-3.8Z" fill="url(#p)" stroke="#20252c" stroke-width=".75"/><path d="m7.5 8.5.45.8.4-.65.45.6.45-.7.45.65.5-.65" fill="#20252c" stroke="#20252c" stroke-width=".32"/><circle cx="9.6" cy="9.8" r="1.02" fill="#7fa9ce" stroke="#20252c" stroke-width=".5"/><circle cx="9.8" cy="9.8" r=".18" fill="#20252c"/><path d="M10.1 12c.55.25 1.1.2 1.55 0-.15.5-.5.8-.85.85-.3-.15-.55-.4-.7-.85Zm-.2 2.6c.45.15.8-.05 1-.4.05.5-.05.9-.3 1.25-.15-.3-.4-.45-.65-.45Z" fill="#20252c"/>
</svg>
