<?xml version="1.0"?><svg xmlns="http://www.w3.org/2000/svg" width="20" height="20" viewBox="0 0 20 20"><title>Comic Chat 20 pixel application icon</title><defs><linearGradient id="p" x2="0" y2="1"><stop stop-color="#fffdf7"/><stop offset="1" stop-color="#ded7c9"/></linearGradient></defs>
  <path d="M4.2 1.3h12a2.3 2.3 0 0 1 2.3 2.3v9a2.3 2.3 0 0 1-2.3 2.3h-1.1l-1.5 2 .25-2H4.2a2.3 2.3 0 0 1-2.3-2.3v-9a2.3 2.3 0 0 1 2.3-2.3Z" fill="url(#p)" stroke="#20252c" stroke-width="1" stroke-linejoin="round"/><path d="M4.2 1.8h12c1 0 1.8.8 1.8 1.8v3.5H2.4V3.6c0-1 .8-1.8 1.8-1.8Z" fill="#f3c744"/>
  <g fill="#b79927"><circle cx="4.3" cy="3.3" r=".28"/><circle cx="6.6" cy="3.3" r=".28"/><circle cx="8.9" cy="3.3" r=".28"/><circle cx="11.2" cy="3.3" r=".28"/><circle cx="13.5" cy="3.3" r=".28"/><circle cx="15.8" cy="3.3" r=".28"/><circle cx="5.4" cy="5.2" r=".28"/><circle cx="7.7" cy="5.2" r=".28"/><circle cx="10" cy="5.2" r=".28"/><circle cx="12.3" cy="5.2" r=".28"/><circle cx="14.6" cy="5.2" r=".28"/></g><g fill="#7b828c"><rect x="12.5" y="8.2" width="4.3" height=".7" rx=".35"/><rect x="12.5" y="10.3" width="4.3" height=".7" rx=".35"/><rect x="12.5" y="12.4" width="3.3" height=".7" rx=".35"/></g>
  <path d="m4.2 14.2-.35 4.2c1.5.9 4 .95 5.55.05l-.8-3.8Z" fill="#20252c"/><path d="M3.8 9.8C2.3 7.7 3.2 5 5.3 3.8c1.55-.85 3.8-.9 5-.1.55.35.65.8.5 1.35 1.15.3 2.2.9 2.7 1.8-1-.4-1.85-.35-2.55-.1.75.4 1.3.85 1.55 1.45-.95-.4-1.75-.45-2.5-.25l.5.8c-1-.5-2-.7-3-.6-1.05 1-2.7 2.5-3.7 1.65Z" fill="#20252c" stroke="#20252c" stroke-width=".55"/>
  <path d="M7.1 8.1c.75-.7 1.75-.7 2.4-.05.4.35.55.8.6 1.35l1.75 1.55c.25.2.15.5-.15.6l-1.2.3c.3.45.2.85-.2 1.1-.25.15-.55.2-.85.15.25.5.05.95-.35 1.25-.25.2-.55.3-.9.3-.2.3-.5.5-.85.6-1.15-.6-1.55-1.7-1.4-3.35.1-1.45.5-2.75 1.1-3.85Z" fill="url(#p)" stroke="#20252c" stroke-width=".75"/><path d="m6.6 8.2.45.8.4-.7.45.65.5-.75.45.7.5-.7" fill="#20252c" stroke="#20252c" stroke-width=".32"/><path d="m8.1 9.05 1.05.18" stroke="#20252c" stroke-width=".4"/><ellipse cx="8.9" cy="9.6" rx=".68" ry=".58" fill="#20252c" stroke="#20252c" stroke-width=".35"/><circle cx="8.75" cy="9.42" r=".13" fill="#c1c5cc"/><path d="m9.25 11.65.75.15.95-.17-.27.52-.58.28-.55-.25Z" fill="#20252c"/><path d="M9.05 14.4c.42.14.77-.04 1.02-.4.04.5-.05.9-.3 1.25-.17-.28-.4-.43-.66-.43Z" fill="#20252c"/>
</svg>
