<?xml version="1.0"?><svg xmlns="http://www.w3.org/2000/svg" width="200" height="260" viewBox="0 0 200 260"><title>Angry bodycam face</title><defs><linearGradient id="p" x2="1" y2="1"><stop stop-color="#fffdf7"/><stop offset=".7" stop-color="#f7f4ea"/><stop offset="1" stop-color="#ded7c9"/></linearGradient></defs>
  <path d="M100 8C51 8 22 43 22 119c0 78 31 132 78 132s78-54 78-132C178 43 149 8 100 8Z" fill="url(#p)" stroke="#20252c" stroke-width="10"/><path d="m42 49 50 27m66-27-50 27" fill="none" stroke="#20252c" stroke-width="12" stroke-linecap="round"/><path d="m48 89 42-9-10 25-28-2Zm104 0-42-9 10 25 28-2Z" fill="#c1c5cc" stroke="#20252c" stroke-width="6"/><circle cx="72" cy="94" r="5" fill="#20252c"/><circle cx="128" cy="94" r="5" fill="#20252c"/><path d="m100 104-8 36 16 1" fill="none" stroke="#7b828c" stroke-width="7" stroke-linecap="round"/><path d="M58 165c25-14 59-14 84 0l-4 40c-25 12-51 12-76 0Z" fill="#20252c" stroke="#20252c" stroke-width="7"/><path d="M67 172h66v14H67Zm4 19h58v10H71Z" fill="#f7f4ea"/><path d="M84 172v29m16-29v29m16-29v29" stroke="#7b828c" stroke-width="3"/><path d="M34 118c4 55 16 93 36 114M166 118c-4 55-16 93-36 114" fill="none" stroke="#c1c5cc" stroke-width="5" opacity=".7"/>
</svg>
