<?xml version="1.0"?><svg xmlns="http://www.w3.org/2000/svg" width="200" height="260" viewBox="0 0 200 260"><title>Bored bodycam face</title><defs><linearGradient id="p" x2="1" y2="1"><stop stop-color="#fffdf7"/><stop offset=".7" stop-color="#f7f4ea"/><stop offset="1" stop-color="#ded7c9"/></linearGradient></defs>
  <path d="M100 8C51 8 22 43 22 119c0 78 31 132 78 132s78-54 78-132C178 43 149 8 100 8Z" fill="url(#p)" stroke="#20252c" stroke-width="10"/><path d="M43 66c16-7 32-6 48 1M109 65c16-5 32-4 48 3" fill="none" stroke="#20252c" stroke-width="10" stroke-linecap="round"/><path d="M49 92h43v22H49Zm59 0h43v22h-43Z" fill="#c1c5cc" stroke="#20252c" stroke-width="6"/><path d="M53 99h35m24 0h35" stroke="#20252c" stroke-width="6"/><circle cx="72" cy="104" r="4" fill="#20252c"/><circle cx="130" cy="104" r="4" fill="#20252c"/><path d="m100 106-8 35 16 1" fill="none" stroke="#7b828c" stroke-width="7" stroke-linecap="round"/><path d="M61 183c25-9 53-9 78 0" fill="none" stroke="#20252c" stroke-width="10" stroke-linecap="round"/><path d="M72 202h56" stroke="#c1c5cc" stroke-width="6" stroke-linecap="round"/><path d="M34 118c4 55 16 93 36 114M166 118c-4 55-16 93-36 114" fill="none" stroke="#c1c5cc" stroke-width="5" opacity=".7"/>
</svg>
