<?xml version="1.0"?><svg xmlns="http://www.w3.org/2000/svg" width="200" height="260" viewBox="0 0 200 260"><title>Coy bodycam face</title><defs><linearGradient id="p" x2="1" y2="1"><stop stop-color="#fffdf7"/><stop offset=".7" stop-color="#f7f4ea"/><stop offset="1" stop-color="#ded7c9"/></linearGradient></defs>
  <path d="M100 8C51 8 22 43 22 119c0 78 31 132 78 132s78-54 78-132C178 43 149 8 100 8Z" fill="url(#p)" stroke="#20252c" stroke-width="10"/><path d="M43 64c18-21 35-22 50-8M112 54c14-8 28-5 43 8" fill="none" stroke="#20252c" stroke-width="10" stroke-linecap="round"/><path d="M51 94c13-12 28-12 41 0-10 13-29 13-41 0Zm57 0c13-12 28-12 41 0-10 13-29 13-41 0Z" fill="#c1c5cc" stroke="#20252c" stroke-width="6"/><circle cx="81" cy="95" r="5" fill="#20252c"/><circle cx="138" cy="95" r="5" fill="#20252c"/><path d="m100 104-7 34 15 1" fill="none" stroke="#7b828c" stroke-width="7" stroke-linecap="round"/><path d="M62 171c18 7 38 10 58 7 13-2 21-7 27-15-5 32-24 52-48 52-18 0-31-9-37-24" fill="none" stroke="#20252c" stroke-width="10" stroke-linecap="round"/><path d="M77 190c19 7 38 6 55-3" fill="none" stroke="#d85852" stroke-width="5" stroke-linecap="round"/><path d="M34 118c4 55 16 93 36 114M166 118c-4 55-16 93-36 114" fill="none" stroke="#c1c5cc" stroke-width="5" opacity=".7"/>
</svg>
