<?xml version="1.0"?><svg xmlns="http://www.w3.org/2000/svg" width="200" height="260" viewBox="0 0 200 260"><title>Happy bodycam face</title><defs><linearGradient id="p" x2="1" y2="1"><stop stop-color="#fffdf7"/><stop offset=".7" stop-color="#f7f4ea"/><stop offset="1" stop-color="#ded7c9"/></linearGradient></defs>
  <path d="M100 8C51 8 22 43 22 119c0 78 31 132 78 132s78-54 78-132C178 43 149 8 100 8Z" fill="url(#p)" stroke="#20252c" stroke-width="10"/><path d="M45 57c16-17 32-18 47-5M108 52c15-13 31-12 47 5" fill="none" stroke="#20252c" stroke-width="10" stroke-linecap="round"/><ellipse cx="68" cy="99" rx="13" ry="19" fill="#c1c5cc" stroke="#20252c" stroke-width="7"/><ellipse cx="132" cy="99" rx="13" ry="19" fill="#c1c5cc" stroke="#20252c" stroke-width="7"/><circle cx="70" cy="101" r="5" fill="#20252c"/><circle cx="130" cy="101" r="5" fill="#20252c"/><path d="m100 105-8 34 16 1" fill="none" stroke="#7b828c" stroke-width="7" stroke-linecap="round" stroke-linejoin="round"/><path d="M49 156c30 22 72 22 102 0-3 49-29 72-51 72s-48-23-51-72Z" fill="#20252c" stroke="#20252c" stroke-width="6"/><path d="M58 166c25 14 59 14 84 0l-6 17H64Zm16 41c17 8 35 8 52 0-8 10-17 14-26 14s-18-4-26-14Z" fill="#f7f4ea"/><path d="M32 116c4 55 16 94 37 117M168 116c-4 55-16 94-37 117" fill="none" stroke="#c1c5cc" stroke-width="5" opacity=".7"/>
</svg>
