<?xml version="1.0"?><svg xmlns="http://www.w3.org/2000/svg" width="200" height="260" viewBox="0 0 200 260"><title>Laugh bodycam face</title><defs><linearGradient id="p" x2="1" y2="1"><stop stop-color="#fffdf7"/><stop offset=".7" stop-color="#f7f4ea"/><stop offset="1" stop-color="#ded7c9"/></linearGradient></defs>
  <path d="M100 8C51 8 22 43 22 119c0 78 31 132 78 132s78-54 78-132C178 43 149 8 100 8Z" fill="url(#p)" stroke="#20252c" stroke-width="10"/><path d="M42 63c18-22 35-23 51-7M107 56c16-16 33-15 51 7" fill="none" stroke="#20252c" stroke-width="10" stroke-linecap="round"/><path d="M48 103c14-19 30-19 44 0M108 103c14-19 30-19 44 0" fill="none" stroke="#20252c" stroke-width="9" stroke-linecap="round"/><path d="m100 108-7 28 14 1" fill="none" stroke="#7b828c" stroke-width="7" stroke-linecap="round"/><path d="M49 144c31 19 71 19 102 0-1 58-24 91-51 91s-50-33-51-91Z" fill="#20252c" stroke="#20252c" stroke-width="7"/><path d="M59 154c27 12 55 12 82 0l-6 20H65Z" fill="#f7f4ea"/><path d="M70 207c20-14 40-14 60 0-7 18-17 25-30 25s-23-7-30-25Z" fill="#d85852"/><path d="M34 118c4 55 16 93 36 114M166 118c-4 55-16 93-36 114" fill="none" stroke="#c1c5cc" stroke-width="5" opacity=".7"/>
</svg>
