<?xml version="1.0"?><svg xmlns="http://www.w3.org/2000/svg" width="200" height="260" viewBox="0 0 200 260"><title>Sad bodycam face</title><defs><linearGradient id="p" x2="1" y2="1"><stop stop-color="#fffdf7"/><stop offset=".7" stop-color="#f7f4ea"/><stop offset="1" stop-color="#ded7c9"/></linearGradient></defs>
  <path d="M100 8C51 8 22 43 22 119c0 78 31 132 78 132s78-54 78-132C178 43 149 8 100 8Z" fill="url(#p)" stroke="#20252c" stroke-width="10"/><path d="M43 67c17-12 33-10 49 7M108 74c16-17 32-19 49-7" fill="none" stroke="#20252c" stroke-width="10" stroke-linecap="round"/><ellipse cx="70" cy="103" rx="13" ry="18" fill="#c1c5cc" stroke="#20252c" stroke-width="7"/><ellipse cx="130" cy="103" rx="13" ry="18" fill="#c1c5cc" stroke="#20252c" stroke-width="7"/><circle cx="70" cy="108" r="5" fill="#20252c"/><circle cx="130" cy="108" r="5" fill="#20252c"/><path d="m100 111-8 31 16 1" fill="none" stroke="#7b828c" stroke-width="7" stroke-linecap="round"/><path d="M61 197c20-31 58-31 78 0" fill="none" stroke="#20252c" stroke-width="11" stroke-linecap="round"/><path d="M76 205c16-13 32-13 48 0" fill="none" stroke="#c1c5cc" stroke-width="5"/><path d="M34 118c4 55 16 93 36 114M166 118c-4 55-16 93-36 114" fill="none" stroke="#c1c5cc" stroke-width="5" opacity=".7"/>
</svg>
