<?xml version="1.0"?><svg xmlns="http://www.w3.org/2000/svg" width="200" height="260" viewBox="0 0 200 260"><title>Scared bodycam face</title><defs><linearGradient id="p" x2="1" y2="1"><stop stop-color="#fffdf7"/><stop offset=".7" stop-color="#f7f4ea"/><stop offset="1" stop-color="#ded7c9"/></linearGradient></defs>
  <path d="M100 8C51 8 22 43 22 119c0 78 31 132 78 132s78-54 78-132C178 43 149 8 100 8Z" fill="url(#p)" stroke="#20252c" stroke-width="10"/><path d="M43 63c15-21 32-26 49-16M108 47c17-10 34-5 49 16" fill="none" stroke="#20252c" stroke-width="10" stroke-linecap="round"/><ellipse cx="69" cy="99" rx="18" ry="25" fill="#f7f4ea" stroke="#20252c" stroke-width="7"/><ellipse cx="131" cy="99" rx="18" ry="25" fill="#f7f4ea" stroke="#20252c" stroke-width="7"/><circle cx="69" cy="103" r="7" fill="#20252c"/><circle cx="131" cy="103" r="7" fill="#20252c"/><path d="m100 112-7 28 14 1" fill="none" stroke="#7b828c" stroke-width="7" stroke-linecap="round"/><path d="M58 162c23-15 61-15 84 0l-5 43c-23 12-51 12-74 0Z" fill="#20252c" stroke="#20252c" stroke-width="7"/><path d="M67 168h66v15H67Zm5 20h56v12H72Z" fill="#f7f4ea"/><path d="M100 168v32M83 168v32M117 168v32" stroke="#7b828c" stroke-width="3"/><path d="M34 118c4 55 16 93 36 114M166 118c-4 55-16 93-36 114" fill="none" stroke="#c1c5cc" stroke-width="5" opacity=".7"/>
</svg>
