<?xml version="1.0"?><svg xmlns="http://www.w3.org/2000/svg" width="200" height="260" viewBox="0 0 200 260"><title>Shout bodycam face</title><defs><linearGradient id="p" x2="1" y2="1"><stop stop-color="#fffdf7"/><stop offset=".7" stop-color="#f7f4ea"/><stop offset="1" stop-color="#ded7c9"/></linearGradient></defs>
  <path d="M100 8C51 8 22 43 22 119c0 78 31 132 78 132s78-54 78-132C178 43 149 8 100 8Z" fill="url(#p)" stroke="#20252c" stroke-width="10"/><path d="M43 62c16-22 33-26 50-13M107 49c17-13 34-9 50 13" fill="none" stroke="#20252c" stroke-width="10" stroke-linecap="round"/><ellipse cx="70" cy="99" rx="13" ry="23" fill="#c1c5cc" stroke="#20252c" stroke-width="7"/><ellipse cx="130" cy="99" rx="13" ry="23" fill="#c1c5cc" stroke="#20252c" stroke-width="7"/><circle cx="70" cy="101" r="5" fill="#20252c"/><circle cx="130" cy="101" r="5" fill="#20252c"/><path d="m100 109-7 28 14 1" fill="none" stroke="#7b828c" stroke-width="7" stroke-linecap="round"/><ellipse cx="100" cy="187" rx="44" ry="55" fill="#20252c" stroke="#20252c" stroke-width="7"/><path d="M69 157c20-10 42-10 62 0v15H69Z" fill="#f7f4ea"/><path d="M72 211c18-12 38-12 56 0-6 18-16 25-28 25s-22-7-28-25Z" fill="#d85852"/><path d="M34 118c4 55 16 93 36 114M166 118c-4 55-16 93-36 114" fill="none" stroke="#c1c5cc" stroke-width="5" opacity=".7"/>
</svg>
