<?xml version="1.0"?><svg xmlns="http://www.w3.org/2000/svg" width="64" height="64" viewBox="0 0 64 64"><title>Comic view Armando cameo</title>
  <path d="M7 50 5 61c8 4 21 4 29 0l-4-12Z" fill="#20252c"/><path d="M7 34C2 26 6 16 14 11c6-4 15-4 20-1 3 2 3 4 2 6 5 1 9 4 11 7-4-1-7-1-10 0 3 1 5 3 6 5-4-2-7-2-10-1l2 3c-4-2-7-3-11-2-4 4-11 10-17 6Z" fill="#20252c" stroke="#20252c" stroke-width="2"/><path d="M20 27c3-3 7-3 10 0l8 8c1 1 0 2-1 2l-5 1c1 2 0 4-2 5 1 3-1 5-4 5-1 1-2 2-4 2-5-3-6-7-5-14 0-4 1-7 3-9Z" fill="#f7f4ea" stroke="#20252c" stroke-width="2.5"/><path d="m17 28 2 3 2-3 2 3 2-3 2 2 2-2" fill="#20252c"/><path d="m21 30 6 1" stroke="#20252c" stroke-width="2"/><ellipse cx="25.5" cy="33" rx="2.7" ry="2.3" fill="#20252c" stroke="#20252c" stroke-width="1.5"/><circle cx="25" cy="32.4" r=".6" fill="#c1c5cc"/><path d="m28.5 39.5 3 .6 4-.7-1 2.2-2.3 1.1-2.1-1Z" fill="#20252c"/><path d="m29.8 40.2 1.5.3 2-.35-.5.8-1.2.5-1.1-.45Z" fill="#f7f4ea"/><path d="M28 48c2 1 4 0 5-2 0 3-1 5-2 7-1-2-2-2-3-2Z" fill="#20252c"/><path d="M44 14h15v34H42" fill="none" stroke="#f3c744" stroke-width="5" stroke-linejoin="round"/>
</svg>
