<?xml version="1.0"?><svg xmlns="http://www.w3.org/2000/svg" width="64" height="64" viewBox="0 0 64 64"><title>Favorites map</title><defs><linearGradient id="p" x2="1" y2="1"><stop stop-color="#fffdf7"/><stop offset="1" stop-color="#ded7c9"/></linearGradient></defs>
  <path d="m5 13 16-7 21 7 17-7v45l-17 7-21-7-16 7Z" fill="url(#p)" stroke="#20252c" stroke-width="4" stroke-linejoin="round"/><path d="M21 6v45M42 13v45" stroke="#7b828c" stroke-width="3"/><path d="M8 37c11-10 21-11 32-4 6 4 11 3 17-2" fill="none" stroke="#4d9e67" stroke-width="5" stroke-linecap="round"/><path d="m33 13 4 9 10 1-8 7 2 10-8-5-9 5 3-10-8-7 10-1Z" fill="#f3c744" stroke="#20252c" stroke-width="3"/><circle cx="10" cy="38" r="4" fill="#d85852" stroke="#20252c" stroke-width="2"/>
</svg>
