<?xml version="1.0" encoding="UTF-8"?>
<svg xmlns="http://www.w3.org/2000/svg" width="32" height="32" viewBox="0 0 32 32">
  <title>Comic Chat compact avatar document icon</title>
  <defs>
    <linearGradient id="p" x1="0" y1="0" x2="1" y2="1"><stop stop-color="#fffdf7"/><stop offset="1" stop-color="#e7dfcf"/></linearGradient>
    <linearGradient id="i" x1="0" y1="0" x2="1" y2="1"><stop stop-color="#3a424c"/><stop offset=".45" stop-color="#20252c"/><stop offset="1" stop-color="#101419"/></linearGradient>
    <filter id="s" x="-30%" y="-30%" width="170%" height="180%"><feGaussianBlur in="SourceAlpha" stdDeviation=".48"/><feOffset dy=".62"/><feComponentTransfer><feFuncA type="linear" slope=".28"/></feComponentTransfer><feMerge><feMergeNode/><feMergeNode in="SourceGraphic"/></feMerge></filter>
  </defs>
  <g filter="url(#s)" stroke="#20252c" stroke-linejoin="round">
    <path d="M5.8 2.2h16.4l4.4 4.4v23.2H5.8Z" fill="url(#p)" stroke-width="1.25"/>
    <path d="M22.2 2.2v4.4h4.4" fill="#c1c5cc" stroke-width="1.15"/>
    <path d="M6.7 3.4v25.1h18.5" fill="none" stroke="#c1c5cc" stroke-width=".45"/>
  </g>
  <g filter="url(#s)" stroke="#20252c" stroke-linecap="round" stroke-linejoin="round">
    <path d="M9.3 23.8 8.6 28c2.1 1.4 5.5 1.5 7.9.1l-1.1-4.1Z" fill="url(#i)" stroke-width="1.12"/>
    <path d="m11.6 20.8-.35 4.7c1.05.75 2.3.75 3.35.05l.3-4.35Z" fill="url(#p)" stroke-width="1"/>
    <path d="M8.8 16.1c-2 1-2.1 3-.6 3.85 1.15.65 2.35 0 2.65-1.15-.95.7-2.05.1-1.6-.75.35-.6 1.1-.6 1.7-.25" fill="url(#i)" stroke-width="1.1"/>
    <path d="M8.1 14.5c-1.8-3.15-.7-6.35 2.1-8 2.1-1.2 5.1-1.3 6.8-.2.75.5.9 1.15.75 1.95 1.6.4 3 1.3 3.8 2.55-1.35-.5-2.5-.5-3.45-.15 1.05.55 1.75 1.25 2.15 2.05-1.25-.5-2.3-.65-3.3-.4l.65 1.15c-1.25-.7-2.55-1-3.9-.85-1.45 1.4-3.7 3.65-5.6 1.9Z" fill="url(#i)" stroke-width="1.22"/>
    <path d="M8.55 8.1c-.75-.65-1.55-.45-1.85.2.7-.1 1.2.15 1.6.65" fill="url(#i)" stroke-width=".85"/>
    <path d="M12.75 12.3c.95-.95 2.3-1 3.25-.2.6.45.8 1.1.9 1.85l2.4 2.2c.3.3.2.7-.2.8l-1.75.45c.4.65.3 1.25-.25 1.6-.35.2-.75.3-1.2.25.35.7.05 1.4-.45 1.8-.4.3-.85.45-1.3.45-.3.45-.75.7-1.25.85-1.75-.9-2.3-2.6-2.1-5.1.15-2.2.7-4.1 1.95-4.95Z" fill="url(#p)" stroke-width="1.12"/>
    <path d="m12 12.45.6 1.15.65-.95.6.85.7-1.05.7 1 .7-.9" fill="url(#i)" stroke-width=".68"/>
    <circle cx="14.6" cy="14.45" r="1.3" fill="#89a8c4" stroke-width=".75"/>
    <path d="M13.3 14.45h-1.05m3.65 0c.7 0 1.25.35 1.7.75" fill="none" stroke-width=".7"/>
    <circle cx="14.8" cy="14.45" r=".24" fill="#20252c" stroke="none"/>
    <path d="M15.5 17.55c.8.3 1.5.3 2.15 0-.2.65-.7 1.05-1.15 1.15-.45-.2-.8-.55-1-1.15Z" fill="#20252c" stroke-width=".4"/>
    <path d="M15.2 21.35c.6.2 1.1-.05 1.45-.55.1.8-.05 1.45-.4 2.05-.3-.45-.6-.7-1-.75Z" fill="url(#i)" stroke-width=".52"/>
  </g>
</svg>
