<?xml version="1.0" encoding="UTF-8"?>
<svg xmlns="http://www.w3.org/2000/svg" width="32" height="32" viewBox="0 0 32 32">
  <title>Comic Chat compact application icon</title>
  <defs>
    <linearGradient id="p" x1="0" y1="0" x2="0" y2="1"><stop stop-color="#fffdf7"/><stop offset="1" stop-color="#e7dfcf"/></linearGradient>
    <linearGradient id="i" x1="0" y1="0" x2="1" y2="1"><stop stop-color="#3a424c"/><stop offset=".45" stop-color="#20252c"/><stop offset="1" stop-color="#101419"/></linearGradient>
    <filter id="s" x="-30%" y="-30%" width="170%" height="180%"><feGaussianBlur in="SourceAlpha" stdDeviation=".55"/><feOffset dy=".65"/><feComponentTransfer><feFuncA type="linear" slope=".3"/></feComponentTransfer><feMerge><feMergeNode/><feMergeNode in="SourceGraphic"/></feMerge></filter>
  </defs>
  <g filter="url(#s)" stroke="#20252c" stroke-linejoin="round">
    <path d="M7.4 2.2H26a3.2 3.2 0 0 1 3.2 3.2v14.2a3.2 3.2 0 0 1-3.2 3.2h-1.7l-2.1 3.1.3-3.1H7.4a3.2 3.2 0 0 1-3.2-3.2V5.4a3.2 3.2 0 0 1 3.2-3.2Z" fill="url(#p)" stroke-width="1.25"/>
    <path d="M7.4 2.85H26a2.55 2.55 0 0 1 2.55 2.55v6.4H4.85V5.4A2.55 2.55 0 0 1 7.4 2.85Z" fill="#f3c744" stroke="none"/>
    <g fill="#b79927" stroke="none" opacity=".82"><circle cx="7" cy="5" r=".38"/><circle cx="10.2" cy="5" r=".38"/><circle cx="13.4" cy="5" r=".38"/><circle cx="16.6" cy="5" r=".38"/><circle cx="19.8" cy="5" r=".38"/><circle cx="23" cy="5" r=".38"/><circle cx="26.2" cy="5" r=".38"/><circle cx="8.6" cy="7.5" r=".38"/><circle cx="11.8" cy="7.5" r=".38"/><circle cx="15" cy="7.5" r=".38"/><circle cx="18.2" cy="7.5" r=".38"/><circle cx="21.4" cy="7.5" r=".38"/><circle cx="24.6" cy="7.5" r=".38"/><circle cx="7" cy="10" r=".38"/><circle cx="10.2" cy="10" r=".38"/><circle cx="13.4" cy="10" r=".38"/><circle cx="16.6" cy="10" r=".38"/><circle cx="19.8" cy="10" r=".38"/><circle cx="23" cy="10" r=".38"/><circle cx="26.2" cy="10" r=".38"/></g>
    <g fill="#7b828c" stroke="none"><rect x="19" y="13.2" width="7.4" height="1.15" rx=".57"/><rect x="19" y="16.2" width="7.4" height="1.15" rx=".57"/><rect x="19" y="19.2" width="5.8" height="1.15" rx=".57"/></g>
  </g>
  <g filter="url(#s)" stroke="#20252c" stroke-linecap="round" stroke-linejoin="round">
    <path d="M7.3 23.5 6.7 29c2 1.35 5.4 1.5 7.8.15l-1.2-5.1Z" fill="url(#i)" stroke-width="1.15"/>
    <path d="M9.6 20.4 9.2 26c1.1.75 2.3.75 3.4.1l.35-5.3Z" fill="url(#p)" stroke-width="1"/>
    <path d="M6.9 15.9c-2.2 1-2.3 3.2-.7 4.1 1.25.75 2.5.05 2.8-1.2-1 .75-2.2.1-1.7-.8.35-.65 1.15-.65 1.8-.3" fill="url(#i)" stroke-width="1.15"/>
    <path d="M6.2 14.3C4.2 11 5.4 7.5 8.4 5.8c2.25-1.3 5.4-1.4 7.2-.2.8.5.9 1.2.75 2.05 1.7.45 3.2 1.35 4 2.7-1.45-.55-2.65-.5-3.65-.15 1.1.6 1.85 1.35 2.25 2.2-1.3-.55-2.45-.7-3.5-.45l.7 1.25c-1.35-.75-2.7-1.05-4.15-.9-1.55 1.5-3.95 3.85-5.8 2Z" fill="url(#i)" stroke-width="1.25"/>
    <path d="M6.7 7.6c-.8-.7-1.65-.45-1.95.25.75-.15 1.25.15 1.7.65" fill="url(#i)" stroke-width=".9"/>
    <path d="M11.2 11.9c1-1 2.45-1.05 3.45-.2.6.5.85 1.15.95 2l2.55 2.3c.35.3.2.75-.2.85l-1.85.45c.45.7.3 1.35-.3 1.7-.35.25-.8.3-1.25.3.35.75.05 1.45-.5 1.9-.4.35-.85.5-1.35.5-.35.45-.8.7-1.35.9-1.85-.95-2.45-2.75-2.25-5.45.15-2.3.75-4.35 2.1-5.25Z" fill="url(#p)" stroke-width="1.15"/>
    <path d="m10.4 12.1.65 1.25.65-1.05.65.95.75-1.15.75 1.1.75-1" fill="url(#i)" stroke-width=".7"/>
    <path d="m12.15 13.25 1.75.3" fill="none" stroke-width=".58"/>
    <ellipse cx="13.35" cy="14.2" rx=".88" ry=".75" fill="#20252c" stroke-width=".62"/>
    <path d="M11.8 14.2h-1.15m3.8 0c.8-.05 1.35.35 1.8.8" fill="none" stroke-width=".7"/>
    <circle cx="13.15" cy="13.95" r=".17" fill="#c1c5cc" stroke="none"/>
    <path d="m14.05 17.25 1.05.2 1.35-.22-.35.72-.85.42-.75-.35Z" fill="#20252c" stroke-width=".3"/>
    <path d="m14.45 17.5.55.1.75-.12-.2.25-.45.18-.45-.15Z" fill="#f7f4ea" stroke="none"/>
    <path d="M13.75 21.35c.6.2 1.1-.05 1.45-.55.05.75-.1 1.4-.45 1.9-.25-.4-.6-.6-.95-.65Z" fill="url(#i)" stroke-width=".5"/>
  </g>
</svg>
