<?xml version="1.0" encoding="UTF-8"?>
<svg xmlns="http://www.w3.org/2000/svg" width="32" height="32" viewBox="0 0 32 32">
  <title>Comic Chat compact transcript document</title><defs><linearGradient id="p" x2="1" y2="1"><stop stop-color="#fffdf7"/><stop offset="1" stop-color="#ded7c9"/></linearGradient></defs>
  <path d="M8 2.3h14l4.4 4.4v21H8Z" fill="url(#p)" stroke="#20252c" stroke-width="1.3" stroke-linejoin="round"/><path d="M22 2.3v4.4h4.4" fill="#c1c5cc" stroke="#20252c" stroke-width="1.1"/>
  <path d="M3.7 6.3h14.7l4.1 4.1v19H3.7Z" fill="url(#p)" stroke="#20252c" stroke-width="1.35" stroke-linejoin="round"/><path d="M18.4 6.3v4.1h4.1" fill="#c1c5cc" stroke="#20252c" stroke-width="1.1"/>
  <path d="M4.4 7.5h13.2v3.4H4.4Z" fill="#f3c744"/><g stroke="#7b828c" stroke-width=".9" stroke-linecap="round"><path d="M13.3 14.1h6.1M13.3 17h6.1M13.3 19.9h4.7"/></g>
  <path d="m5.7 23.7-.5 4.1c1.6 1.1 4.2 1.2 5.8.1l-.8-3.7Z" fill="#20252c"/><path d="M5.6 20c-1.3-2.1-.5-4.5 1.5-5.6 1.4-.8 3.5-.9 4.6-.2.5.3.6.8.5 1.2 1 .3 2 .9 2.4 1.7-.9-.3-1.7-.3-2.3 0 .7.3 1.2.8 1.5 1.3-.9-.3-1.6-.4-2.2-.2l.4.7c-.9-.5-1.7-.6-2.6-.5-.9.9-2.4 2.2-3.8 1.6Z" fill="#20252c"/>
  <path d="M8.7 17.9c.8-.7 1.9-.6 2.5.1l2.1 2c.2.2.1.5-.2.6l-1.3.3c.3.6.1 1-.5 1.2.3.7-.2 1.2-.8 1.3-.2.3-.6.5-1 .6-1.2-.7-1.5-2-1.3-3.6.1-1 .2-1.9.5-2.5Z" fill="url(#p)" stroke="#20252c" stroke-width=".85"/><circle cx="10.5" cy="19.5" r=".95" fill="#7fa9ce" stroke="#20252c" stroke-width=".55"/><path d="M10.7 22.2c.5.2.9.2 1.3 0-.2.5-.5.7-.8.8-.2-.2-.4-.4-.5-.8Z" fill="#20252c"/>
</svg>
