<?xml version="1.0" encoding="UTF-8"?>
<svg xmlns="http://www.w3.org/2000/svg" width="32" height="32" viewBox="0 0 32 32"><title>Comic Chat compact room</title><defs><linearGradient id="p" x2="1" y2="1"><stop stop-color="#fffdf7"/><stop offset="1" stop-color="#ded7c9"/></linearGradient></defs>
  <g stroke="#20252c" stroke-width="1.2" stroke-linejoin="round">
    <path d="M13.5 2.2h13a2.6 2.6 0 0 1 2.6 2.6v8a2.6 2.6 0 0 1-2.6 2.6h-1.7l-1.2 1.7.2-1.7H13.5a2.6 2.6 0 0 1-2.6-2.6v-8a2.6 2.6 0 0 1 2.6-2.6Z" fill="url(#p)"/><path d="M11.5 6.3h17v3.1h-17Z" fill="#f3c744" stroke="none"/><path d="M8.5 8.4h13a2.6 2.6 0 0 1 2.6 2.6v8a2.6 2.6 0 0 1-2.6 2.6h-1.7l-1.2 1.8.2-1.8H8.5A2.6 2.6 0 0 1 5.9 19v-8a2.6 2.6 0 0 1 2.6-2.6Z" fill="url(#p)"/><path d="M6.5 12.5h17v3.1h-17Z" fill="#f3c744" stroke="none"/><path d="M3.5 15.3h12.2a2.6 2.6 0 0 1 2.6 2.6v7.4a2.6 2.6 0 0 1-2.6 2.6H14l-1.2 1.7.2-1.7H3.5a2.6 2.6 0 0 1-2.6-2.6v-7.4a2.6 2.6 0 0 1 2.6-2.6Z" fill="url(#p)"/><path d="M1.5 19.2h16.2v3H1.5Z" fill="#f3c744" stroke="none"/>
  </g><g stroke="#7b828c" stroke-width=".8" stroke-linecap="round"><path d="M20 11.9h6M13 18.3h7M6 24.6h8"/></g>
</svg>
