<?xml version="1.0" encoding="UTF-8"?>
<svg xmlns="http://www.w3.org/2000/svg" width="32" height="32" viewBox="0 0 32 32"><title>Comic Chat compact rules card</title><defs><linearGradient id="p" x2="1" y2="1"><stop stop-color="#fffdf7"/><stop offset="1" stop-color="#ded7c9"/></linearGradient></defs>
  <path d="M2.5 2.5h27v27h-27Z" fill="url(#p)" stroke="#20252c" stroke-width="1.35"/><path d="M3.5 3.5h25v6H3.5Z" fill="#f3c744"/><path d="M21 4.5h6v7h-6Z" fill="#20252c"/><path d="m22.2 8 1.4 1.4 2.6-3.7" fill="none" stroke="#f7f4ea" stroke-width="1.3" stroke-linecap="round"/>
  <path d="m5 23.6-.5 4.2c1.6 1.1 4.3 1.2 6 .1l-.9-3.8Z" fill="#20252c"/><path d="M5 19.9c-1.4-2.2-.5-4.6 1.6-5.8 1.5-.8 3.5-.9 4.7-.2.5.3.6.8.5 1.3 1.1.3 2 .9 2.5 1.8-1-.4-1.7-.3-2.4 0 .7.3 1.2.8 1.5 1.3-.9-.3-1.6-.4-2.3-.2l.5.8c-.9-.5-1.8-.7-2.7-.5-1 1-2.5 2.3-3.9 1.5Z" fill="#20252c"/>
  <path d="M8.1 17.8c.8-.7 1.9-.6 2.6.1l2.1 2c.3.2.1.5-.2.6l-1.3.3c.3.6.1 1-.5 1.2.3.7-.2 1.2-.8 1.4-.2.3-.6.5-1 .6-1.2-.7-1.5-2-1.3-3.7.1-1 .2-1.9.4-2.5Z" fill="url(#p)" stroke="#20252c" stroke-width=".85"/><circle cx="10" cy="19.5" r=".95" fill="#7fa9ce" stroke="#20252c" stroke-width=".55"/><path d="M10.2 22.2c.5.2 1 .2 1.4 0-.2.5-.5.7-.8.8-.3-.2-.5-.4-.6-.8Z" fill="#20252c"/>
  <path d="M16 14h12v14H16" fill="none" stroke="#20252c" stroke-width="1.15"/>
</svg>
