<?xml version="1.0" encoding="UTF-8"?>
<svg xmlns="http://www.w3.org/2000/svg" width="32" height="32" viewBox="0 0 32 32"><title>Comic Chat compact marked network globe</title><defs><radialGradient id="o"><stop stop-color="#79a9d3"/><stop offset="1" stop-color="#3d78b8"/></radialGradient></defs>
  <circle cx="16" cy="12" r="9.5" fill="url(#o)" stroke="#20252c" stroke-width="1.3"/><path d="M9 7c2-2 4-3 6-2.5l1 1.5-1.5 1 .5 1.5-2 1-1 2-3-.5Zm7 8 2-1.5 2.5.5 1 2-1.5 2 .3 3-2.2 2.2-2-2.5.6-2.2-1.5-2Z" fill="#4d9e67" stroke="#20252c" stroke-width=".4"/><g fill="none" stroke="#f7f4ea" stroke-width=".4" opacity=".7"><ellipse cx="16" cy="12" rx="5" ry="9.2"/><path d="M6.7 12h18.6M8 8c5 1.5 11 1.5 16 0M8 16c5-1.5 11-1.5 16 0"/></g>
  <g fill="#f7f4ea" stroke="#20252c" stroke-width=".6"><circle cx="10" cy="10" r="1"/><circle cx="18" cy="7" r="1"/><circle cx="21" cy="15" r="1"/></g><path d="m11 9.7 6-2.3m1.5.5 2 6.2M11 10.7l9.2 4" stroke="#d85852" stroke-width=".65"/>
  <path d="M14 21.3h4v5h-4Z" fill="#f3c744" stroke="#20252c" stroke-width="1"/><path d="M10 26h12l2.5 4H7.5Z" fill="#f3c744" stroke="#20252c" stroke-width="1.2" stroke-linejoin="round"/>
</svg>
