<?xml version="1.0" encoding="UTF-8"?>
<svg xmlns="http://www.w3.org/2000/svg" width="16" height="16" viewBox="0 0 16 16">
  <title>Comic Chat 16 pixel avatar document icon</title>
  <defs><linearGradient id="p" x2="1" y2="1"><stop stop-color="#fffdf7"/><stop offset="1" stop-color="#ded7c9"/></linearGradient></defs>
  <path d="M2.6 1.1h8.25l2.4 2.4v11.4H2.6Z" fill="url(#p)" stroke="#20252c" stroke-width=".85" stroke-linejoin="round"/>
  <path d="M10.85 1.1v2.4h2.4" fill="#c1c5cc" stroke="#20252c" stroke-width=".72" stroke-linejoin="round"/>
  <path d="m4.25 11.7-.35 2.5c1.2.8 3.25.85 4.55.05l-.65-2.3Z" fill="#20252c" stroke="#20252c" stroke-width=".63"/>
  <path d="M4 7.8C2.9 6.1 3.55 4.05 5.2 3.15c1.2-.65 2.9-.7 3.85-.1.4.3.5.65.4 1.05.85.2 1.65.7 2.05 1.35-.75-.25-1.35-.25-1.9-.05.6.3 1 .65 1.2 1.1-.7-.3-1.3-.35-1.85-.2l.35.6c-.7-.4-1.45-.55-2.2-.45-.8.75-2.05 1.95-3.1 1.35Z" fill="#20252c" stroke="#20252c" stroke-width=".65" stroke-linejoin="round"/>
  <path d="M6.55 6.45c.55-.55 1.35-.55 1.85-.05.35.25.45.6.5 1l1.35 1.2c.2.2.1.4-.1.45l-1 .25c.2.4.15.7-.15.9-.2.15-.4.15-.65.15.2.4.05.75-.3 1-.2.15-.45.25-.7.25-.2.25-.4.4-.7.45-.95-.45-1.25-1.4-1.15-2.8.1-1.2.4-2.3 1.05-2.8Z" fill="url(#p)" stroke="#20252c" stroke-width=".68" stroke-linejoin="round"/>
  <path d="m6.2 6.55.35.65.35-.55.35.5.4-.6.4.55.4-.5" fill="#20252c" stroke="#20252c" stroke-width=".34"/>
  <path d="m7.4 7.15.9.15" stroke="#20252c" stroke-width=".34"/>
  <ellipse cx="8" cy="7.72" rx=".55" ry=".47" fill="#20252c" stroke="#20252c" stroke-width=".3"/>
  <circle cx="7.88" cy="7.58" r=".11" fill="#c1c5cc"/>
  <path d="m8.25 9.42.6.12.8-.14-.23.43-.5.24-.43-.21Z" fill="#20252c"/>
  <path d="M8.1 11.55c.4.13.73-.04.96-.38.05.49-.03.9-.26 1.23-.17-.28-.38-.43-.64-.43Z" fill="#20252c"/>
</svg>
