<?xml version="1.0"?><svg xmlns="http://www.w3.org/2000/svg" width="16" height="16" viewBox="0 0 16 16"><title>Comic Chat 16 pixel transcript document</title>
  <path d="M4 1h7l2.5 2.5v10H4Z" fill="#f7f4ea" stroke="#20252c" stroke-width=".7"/><path d="M11 1v2.5h2.5" fill="#c1c5cc" stroke="#20252c" stroke-width=".6"/>
  <path d="M2 3h7.5l2 2v10H2Z" fill="#f7f4ea" stroke="#20252c" stroke-width=".75"/><path d="M9.5 3v2h2" fill="#c1c5cc" stroke="#20252c" stroke-width=".55"/><path d="M2.5 4h6.5v1.6H2.5Z" fill="#f3c744"/>
  <g stroke="#7b828c" stroke-width=".45"><path d="M6.8 7h3M6.8 8.5h3M6.8 10h2"/></g><path d="M2.8 10c-.6-1 .2-2.7 1.7-3.2 1.2-.4 2.3.2 3 1-.6-.2-1.1-.1-1.5.1.5.2.8.5 1 .9-.6-.2-1-.2-1.5-.1-.6.6-1.5 1.5-2.7 1.3Z" fill="#20252c"/><path d="M4.4 8.9c.6-.5 1.3-.2 1.7.4l.9.7-.8.5c.2.5-.1.8-.5.8-.2.4-.5.6-.9.7-.6-.5-.8-1.2-.7-2 .1-.5.2-.9.3-1.1Z" fill="#f7f4ea" stroke="#20252c" stroke-width=".4"/><circle cx="5.3" cy="9.6" r=".4" fill="#7fa9ce"/>
</svg>
