<?xml version="1.0" encoding="UTF-8"?>
<svg xmlns="http://www.w3.org/2000/svg" width="16" height="16" viewBox="0 0 16 16">
  <title>Comic Chat 16 pixel application icon</title>
  <defs><linearGradient id="p" x2="0" y2="1"><stop stop-color="#fffdf7"/><stop offset="1" stop-color="#ded7c9"/></linearGradient></defs>
  <path d="M3.5 1.1h9.6c1 0 1.75.8 1.75 1.75v7.2c0 1-.8 1.75-1.75 1.75h-.9l-1.15 1.55.2-1.55H3.5c-1 0-1.75-.8-1.75-1.75v-7.2c0-1 .8-1.75 1.75-1.75Z" fill="url(#p)" stroke="#20252c" stroke-width=".85" stroke-linejoin="round"/>
  <path d="M3.5 1.55h9.6c.7 0 1.3.6 1.3 1.3V5.7H2.2V2.85c0-.7.6-1.3 1.3-1.3Z" fill="#f3c744"/>
  <g fill="#b79927"><circle cx="3.5" cy="2.75" r=".25"/><circle cx="5.4" cy="2.75" r=".25"/><circle cx="7.3" cy="2.75" r=".25"/><circle cx="9.2" cy="2.75" r=".25"/><circle cx="11.1" cy="2.75" r=".25"/><circle cx="13" cy="2.75" r=".25"/><circle cx="4.45" cy="4.25" r=".25"/><circle cx="6.35" cy="4.25" r=".25"/><circle cx="8.25" cy="4.25" r=".25"/><circle cx="10.15" cy="4.25" r=".25"/><circle cx="12.05" cy="4.25" r=".25"/></g>
  <g fill="#7b828c"><rect x="10.35" y="6.7" width="3.15" height=".68" rx=".34"/><rect x="10.35" y="8.4" width="3.15" height=".68" rx=".34"/><rect x="10.35" y="10.1" width="2.35" height=".68" rx=".34"/></g>
  <path d="M3.5 11.3 3.2 14.7c1.2.75 3.2.8 4.45.05l-.65-3Z" fill="#20252c" stroke="#20252c" stroke-width=".65"/>
  <path d="M3.2 7.7C2 6 2.65 3.85 4.35 2.95c1.25-.7 3-.75 4-.1.45.3.5.65.4 1.05.9.25 1.75.75 2.15 1.45-.8-.3-1.45-.25-2-.05.65.3 1.05.7 1.3 1.15-.75-.3-1.4-.35-2-.2l.4.65c-.8-.4-1.55-.55-2.35-.45-.85.8-2.15 2-3.05 1.3Z" fill="#20252c" stroke="#20252c" stroke-width=".65" stroke-linejoin="round"/>
  <path d="M5.85 6.35c.6-.55 1.4-.55 1.95-.05.35.3.45.65.5 1.05L9.7 8.6c.2.2.1.45-.1.5l-1.05.25c.25.4.15.75-.15.95-.2.15-.45.15-.7.15.2.4.05.8-.3 1.05-.2.2-.5.3-.75.3-.2.25-.45.4-.75.5-1-.5-1.3-1.5-1.2-2.95.1-1.25.4-2.45 1.15-3Z" fill="url(#p)" stroke="#20252c" stroke-width=".68" stroke-linejoin="round"/>
  <path d="m5.45 6.5.35.65.4-.55.35.5.4-.6.4.55.4-.5" fill="#20252c" stroke="#20252c" stroke-width=".35"/>
  <circle cx="7.3" cy="7.7" r=".86" fill="#7fa9ce" stroke="#20252c" stroke-width=".43"/>
  <circle cx="7.48" cy="7.68" r=".2" fill="#20252c"/>
  <path d="M7.72 9.42c.52.23 1 .18 1.45-.02-.16.46-.45.69-.77.76-.29-.12-.52-.37-.68-.74Z" fill="#20252c"/>
  <path d="M7.56 11.68c.47.14.82-.05 1.06-.46.07.58-.02 1.05-.3 1.46-.19-.34-.43-.51-.72-.51Z" fill="#20252c"/>
</svg>
