<?xml version="1.0"?><svg xmlns="http://www.w3.org/2000/svg" width="16" height="16" viewBox="0 0 16 16"><title>Comic Chat 16 pixel ratings globe with exactly three stars</title>
  <circle cx="8" cy="8" r="6" fill="#3d78b8" stroke="#20252c" stroke-width=".75"/><path d="M4.3 4.5c1-1.3 2.3-1.8 3.5-1.5l.8 1-.9.7.3 1-1.3.4-.7 1.2-1.6-.2Zm3.7 5 1-.8 1.6.4.5 1.3-.8 1 .2 2-1.2 1.5-1-1.5.3-1.3-.8-1Z" fill="#4d9e67"/>
  <path d="M.5 6.5h15v4h-15Z" fill="#f7f4ea" stroke="#20252c" stroke-width=".55"/>
  <g fill="#f3c744" stroke="#20252c" stroke-width=".35"><path d="m4.2 6 1 1.4 1.6.2-1.2 1 .4 1.6-1.8-.8-1.7.8.4-1.6-1.2-1 1.6-.2Z"/><path d="m8 5.7 1 1.6 1.8.2-1.3 1.1.4 1.8-1.9-.9-1.9.9.4-1.8-1.3-1.1 1.8-.2Z"/><path d="m11.8 6 1 1.4 1.6.2-1.2 1 .4 1.6-1.8-.8-1.7.8.4-1.6-1.2-1 1.6-.2Z"/></g>
</svg>
