<?xml version="1.0"?><svg xmlns="http://www.w3.org/2000/svg" width="16" height="16" viewBox="0 0 16 16"><title>Comic Chat 16 pixel room panels</title>
  <g fill="#f7f4ea" stroke="#20252c" stroke-width=".7" stroke-linejoin="round"><path d="M7 1h7a1.3 1.3 0 0 1 1.3 1.3v4A1.3 1.3 0 0 1 14 7.6h-.9l-.7.9.1-.9H7a1.3 1.3 0 0 1-1.3-1.3v-4A1.3 1.3 0 0 1 7 1Z"/><path d="M4.5 4.2h7a1.3 1.3 0 0 1 1.3 1.3v4a1.3 1.3 0 0 1-1.3 1.3h-.9l-.7.9.1-.9H4.5a1.3 1.3 0 0 1-1.3-1.3v-4a1.3 1.3 0 0 1 1.3-1.3Z"/><path d="M2 7.8h6.5a1.3 1.3 0 0 1 1.3 1.3v3.7a1.3 1.3 0 0 1-1.3 1.3h-.8l-.7.8.1-.8H2a1.3 1.3 0 0 1-1.3-1.3V9.1A1.3 1.3 0 0 1 2 7.8Z"/></g>
  <path d="M6 3h8.8v1.3H6Z" fill="#f3c744"/>
  <path d="M3.5 6.2h8.8v1.3H3.5Z" fill="#f3c744"/>
  <path d="M1 9.8h8.3v1.3H1Z" fill="#f3c744"/>
</svg>
