<?xml version="1.0"?><svg xmlns="http://www.w3.org/2000/svg" width="16" height="16" viewBox="0 0 16 16"><title>Comic Chat 16 pixel rules card</title>
  <rect x="1.5" y="1.5" width="13" height="13" rx="1.25" fill="#f7f4ea" stroke="#20252c" stroke-width=".8"/><path d="M2 4.5V2.8Q2 2 2.8 2h10.4q.8 0 .8.8v1.7Z" fill="#f3c744"/><path d="M10.5 2h3.5v4h-3.5Z" fill="#20252c"/><path d="m11 4 1 1 1.5-2.2" fill="none" stroke="#f7f4ea" stroke-width=".7" stroke-linecap="round"/>
  <path d="M2.5 10c-.7-1.1.1-2.8 1.7-3.4 1.2-.4 2.4.2 3.1 1.1-.6-.2-1.1-.1-1.6.1.5.2.9.5 1.1.9-.6-.2-1.1-.2-1.5-.1-.7.7-1.6 1.6-2.8 1.4Z" fill="#20252c"/><path d="M4.1 8.8c.6-.5 1.4-.2 1.8.4l1 .8-.9.5c.2.5-.1.8-.5.9-.2.4-.6.6-1 .7-.6-.5-.8-1.2-.7-2.1.1-.5.2-1 .3-1.2Z" fill="#f7f4ea" stroke="#20252c" stroke-width=".4"/><ellipse cx="5.15" cy="9.6" rx=".28" ry=".24" fill="#20252c"/><circle cx="5.09" cy="9.53" r=".07" fill="#c1c5cc"/><path d="M8 7h6.5v7H8" fill="none" stroke="#20252c" stroke-width=".65"/>
</svg>
