<?xml version="1.0"?><svg xmlns="http://www.w3.org/2000/svg" width="16" height="16" viewBox="0 0 16 16"><title>Comic Chat 16 pixel marked network globe and stand</title>
  <circle cx="8" cy="6" r="4.8" fill="#3d78b8" stroke="#20252c" stroke-width=".75"/><path d="M4.5 3.5c1-1 2-1.4 3-1.2l.6.8-.7.5.2.8-1 .4-.5 1-1.5-.3Zm3.5 4 1-.8 1.2.3.5 1-.7 1 .2 1.5-1.1 1-1-1.2.4-1-.8-.8Z" fill="#4d9e67"/><g fill="#f7f4ea" stroke="#20252c" stroke-width=".25"><circle cx="5.2" cy="5.3" r=".45"/><circle cx="9" cy="3.7" r=".45"/><circle cx="10.7" cy="7.5" r=".45"/></g><path d="m5.7 5.2 2.9-1.3m.7.3 1 2.9M5.6 5.6l4.7 1.7" stroke="#d85852" stroke-width=".35"/>
  <path d="M7 10.8h2v2.4H7Z" fill="#f3c744" stroke="#20252c" stroke-width=".55"/><path d="M5 13h6l1.5 2H3.5Z" fill="#f3c744" stroke="#20252c" stroke-width=".7" stroke-linejoin="round"/>
</svg>
