<?xml version="1.0"?><svg xmlns="http://www.w3.org/2000/svg" width="24" height="24" viewBox="0 0 24 24"><title>Comic Chat 24 pixel avatar document</title><defs><linearGradient id="p" x2="1" y2="1"><stop stop-color="#fffdf7"/><stop offset="1" stop-color="#ded7c9"/></linearGradient></defs>
  <path d="M4 1.5h12.4L20 5.1v17.4H4Z" fill="url(#p)" stroke="#20252c" stroke-width="1.1"/><path d="M16.4 1.5v3.6H20" fill="#c1c5cc" stroke="#20252c" stroke-width=".95"/>
  <path d="m6.1 17.5-.5 3.9c1.8 1.2 4.7 1.25 6.5.05l-.85-3.6Z" fill="#20252c"/><path d="M5.6 12.2c-1.7-2.55-.65-5.65 1.85-7.05 1.8-1 4.4-1.1 5.85-.15.6.4.75.95.6 1.55 1.35.35 2.55 1.1 3.15 2.15-1.2-.45-2.15-.4-3-.1.9.45 1.55 1 1.85 1.7-1.1-.45-2.1-.5-2.9-.25l.55.95c-1.2-.6-2.35-.8-3.45-.65-1.2 1.15-3.15 2.9-4.5 1.85Z" fill="#20252c" stroke="#20252c" stroke-width=".6"/>
  <path d="M9.5 10.1c.9-.85 2.1-.85 2.85-.05.45.4.65.95.7 1.55l2.05 1.85c.3.25.15.6-.2.7l-1.45.35c.35.55.25 1-.25 1.3-.3.2-.65.25-.95.2.25.6.05 1.1-.4 1.45-.3.25-.65.35-1.05.35-.2.35-.6.6-1 .7-1.35-.75-1.8-2-1.6-3.9.1-1.65.55-3.2 1.3-4.5Z" fill="url(#p)" stroke="#20252c" stroke-width=".85"/><path d="m8.9 10.25.55.9.5-.8.5.75.6-.85.55.8.55-.8" fill="#20252c" stroke="#20252c" stroke-width=".36"/><circle cx="11.5" cy="11.8" r="1.22" fill="#7fa9ce" stroke="#20252c" stroke-width=".55"/><circle cx="11.75" cy="11.8" r=".2" fill="#20252c"/><path d="M12.15 14.4c.65.3 1.3.25 1.85 0-.2.6-.6.95-1.05 1.05-.35-.2-.65-.5-.8-1.05Zm-.25 3.1c.55.2.95-.05 1.25-.5.05.6-.05 1.1-.35 1.55-.2-.4-.5-.55-.8-.55Z" fill="#20252c"/>
</svg>
