<?xml version="1.0"?><svg xmlns="http://www.w3.org/2000/svg" width="24" height="24" viewBox="0 0 24 24"><title>Comic Chat 24 pixel application icon</title><defs><linearGradient id="p" x2="0" y2="1"><stop stop-color="#fffdf7"/><stop offset="1" stop-color="#ded7c9"/></linearGradient></defs>
  <path d="M5.3 1.6h14.2a2.7 2.7 0 0 1 2.7 2.7V15a2.7 2.7 0 0 1-2.7 2.7h-1.4L16.4 20l.25-2.3H5.3A2.7 2.7 0 0 1 2.6 15V4.3a2.7 2.7 0 0 1 2.7-2.7Z" fill="url(#p)" stroke="#20252c" stroke-width="1.1"/><path d="M5.3 2.2h14.2c1.15 0 2.1.95 2.1 2.1v4.1H3.2V4.3c0-1.15.95-2.1 2.1-2.1Z" fill="#f3c744"/>
  <g fill="#b79927"><circle cx="5.2" cy="4" r=".32"/><circle cx="7.8" cy="4" r=".32"/><circle cx="10.4" cy="4" r=".32"/><circle cx="13" cy="4" r=".32"/><circle cx="15.6" cy="4" r=".32"/><circle cx="18.2" cy="4" r=".32"/><circle cx="20.8" cy="4" r=".32"/><circle cx="6.5" cy="6.2" r=".32"/><circle cx="9.1" cy="6.2" r=".32"/><circle cx="11.7" cy="6.2" r=".32"/><circle cx="14.3" cy="6.2" r=".32"/><circle cx="16.9" cy="6.2" r=".32"/><circle cx="19.5" cy="6.2" r=".32"/></g><g fill="#7b828c"><rect x="15" y="9.8" width="5.1" height=".8" rx=".4"/><rect x="15" y="12.3" width="5.1" height=".8" rx=".4"/><rect x="15" y="14.8" width="3.9" height=".8" rx=".4"/></g>
  <path d="m5 17-.45 5.2c1.8 1.1 4.8 1.2 6.7.05l-.95-4.7Z" fill="#20252c"/><path d="M4.6 11.7C2.8 9.2 3.8 6 6.4 4.6c1.85-1 4.55-1.1 6-.15.65.4.75 1 .6 1.6 1.4.35 2.6 1.1 3.25 2.15-1.25-.45-2.2-.4-3.05-.1.95.45 1.55 1.05 1.9 1.7-1.15-.45-2.1-.5-3-.25l.6 1c-1.25-.65-2.4-.85-3.6-.7-1.25 1.2-3.2 3-4.5 1.85Z" fill="#20252c" stroke="#20252c" stroke-width=".6"/>
  <path d="M8.5 9.7c.9-.85 2.1-.85 2.9-.05.45.4.65.95.7 1.6l2.1 1.85c.3.25.15.6-.2.7l-1.45.35c.35.55.25 1-.25 1.3-.3.2-.65.25-1 .2.3.6.05 1.15-.4 1.5-.3.25-.7.35-1.05.35-.25.4-.6.6-1 .7-1.4-.75-1.85-2.05-1.65-4 .1-1.7.55-3.25 1.3-4.5Z" fill="url(#p)" stroke="#20252c" stroke-width=".85"/><path d="m7.9 9.85.55.95.5-.8.55.75.55-.9.55.85.6-.8" fill="#20252c" stroke="#20252c" stroke-width=".36"/><circle cx="10.5" cy="11.45" r="1.25" fill="#7fa9ce" stroke="#20252c" stroke-width=".55"/><circle cx="10.75" cy="11.45" r=".2" fill="#20252c"/><path d="M11.15 14.1c.7.3 1.35.25 1.9 0-.2.65-.65 1-1.1 1.1-.35-.2-.65-.55-.8-1.1Zm-.25 3.15c.55.2 1-.05 1.25-.5.1.65-.05 1.15-.35 1.6-.2-.4-.5-.55-.8-.55Z" fill="#20252c"/>
</svg>
