<?xml version="1.0"?><svg xmlns="http://www.w3.org/2000/svg" width="20" height="26" viewBox="0 0 20 26"><title>Angry compact bodycam face</title>
  <path d="M10 1C5.1 1 2.1 4.4 2.1 12c0 7.9 3.1 13 7.9 13s7.9-5.1 7.9-13C17.9 4.4 14.9 1 10 1Z" fill="#f7f4ea" stroke="#20252c" stroke-width="1.1"/><path d="m4.1 5 5 2.7M15.9 5l-5 2.7" fill="none" stroke="#20252c" stroke-width="1.3" stroke-linecap="round"/><path d="m4.8 9 4.2-.9-1 2.5-2.8-.2Zm10.4 0L11 8.1l1 2.5 2.8-.2Z" fill="#c1c5cc" stroke="#20252c" stroke-width=".6"/><circle cx="7.2" cy="9.5" r=".42" fill="#20252c"/><circle cx="12.8" cy="9.5" r=".42" fill="#20252c"/><path d="m10 10.5-.7 3.5 1.4.1" fill="none" stroke="#7b828c" stroke-width=".65"/><path d="M5.8 16.5c2.5-1.3 5.9-1.3 8.4 0l-.4 4c-2.5 1.1-5.1 1.1-7.6 0Z" fill="#20252c"/><path d="M6.7 17.2h6.6v1.2H6.7Zm.4 1.7h5.8v.9H7.1Z" fill="#f7f4ea"/><path d="M8.3 17.2v2.6m1.7-2.6v2.6m1.7-2.6v2.6" stroke="#7b828c" stroke-width=".25"/>
</svg>
