<?xml version="1.0"?><svg xmlns="http://www.w3.org/2000/svg" width="20" height="26" viewBox="0 0 20 26"><title>Bored compact bodycam face</title>
  <path d="M10 1C5.1 1 2.1 4.4 2.1 12c0 7.9 3.1 13 7.9 13s7.9-5.1 7.9-13C17.9 4.4 14.9 1 10 1Z" fill="#f7f4ea" stroke="#20252c" stroke-width="1.1"/><path d="M4.2 6.7c1.6-.7 3.2-.6 4.8.1m2-.1c1.6-.5 3.2-.4 4.8.2" fill="none" stroke="#20252c" stroke-width="1.1" stroke-linecap="round"/><path d="M4.9 9.3h4.2v2.2H4.9Zm6 0h4.2v2.2h-4.2Z" fill="#c1c5cc" stroke="#20252c" stroke-width=".6"/><path d="M5.3 10h3.4m2.6 0h3.4" stroke="#20252c" stroke-width=".55"/><circle cx="7.1" cy="10.5" r=".32" fill="#20252c"/><circle cx="13" cy="10.5" r=".32" fill="#20252c"/><path d="m10 10.8-.7 3.4 1.4.1" fill="none" stroke="#7b828c" stroke-width=".65"/><path d="M6.1 18.3c2.5-.8 5.3-.8 7.8 0" fill="none" stroke="#20252c" stroke-width="1.1" stroke-linecap="round"/><path d="M7.2 20.3h5.6" stroke="#c1c5cc" stroke-width=".55"/>
</svg>
