<?xml version="1.0"?><svg xmlns="http://www.w3.org/2000/svg" width="20" height="26" viewBox="0 0 20 26"><title>Coy compact bodycam face</title>
  <path d="M10 1C5.1 1 2.1 4.4 2.1 12c0 7.9 3.1 13 7.9 13s7.9-5.1 7.9-13C17.9 4.4 14.9 1 10 1Z" fill="#f7f4ea" stroke="#20252c" stroke-width="1.1"/><path d="M4.2 6.6c1.8-2.1 3.5-2.2 5-.8m2-.3c1.4-.8 2.8-.5 4.3.8" fill="none" stroke="#20252c" stroke-width="1.1" stroke-linecap="round"/><path d="M4.9 9.7c1.3-1.1 2.8-1.1 4.1 0-1 1.2-2.9 1.2-4.1 0Zm6 0c1.3-1.1 2.8-1.1 4.1 0-1 1.2-2.9 1.2-4.1 0Z" fill="#c1c5cc" stroke="#20252c" stroke-width=".6"/><circle cx="8" cy="9.8" r=".4" fill="#20252c"/><circle cx="14" cy="9.8" r=".4" fill="#20252c"/><path d="m10 10.5-.7 3.3 1.4.1" fill="none" stroke="#7b828c" stroke-width=".65"/><path d="M6 17.2c2.2.9 4.4 1 6.5.5 1.1-.3 1.7-.7 2.2-1.3-.5 3.2-2.4 5-4.8 5-1.8 0-3.1-.8-3.9-2" fill="none" stroke="#20252c" stroke-width="1.1" stroke-linecap="round"/><path d="M7.6 19c1.8.5 3.6.4 5.2-.4" stroke="#d85852" stroke-width=".45" fill="none"/>
</svg>
