<?xml version="1.0"?><svg xmlns="http://www.w3.org/2000/svg" width="20" height="26" viewBox="0 0 20 26"><title>Happy compact bodycam face</title>
  <path d="M10 1C5.1 1 2.1 4.4 2.1 12c0 7.9 3.1 13 7.9 13s7.9-5.1 7.9-13C17.9 4.4 14.9 1 10 1Z" fill="#f7f4ea" stroke="#20252c" stroke-width="1.1"/><path d="M4.3 6.1c1.7-1.7 3.3-1.7 4.8-.4m1.8 0c1.5-1.3 3.1-1.3 4.8.4" fill="none" stroke="#20252c" stroke-width="1.1" stroke-linecap="round"/><ellipse cx="6.8" cy="10" rx="1.2" ry="1.8" fill="#c1c5cc" stroke="#20252c" stroke-width=".7"/><ellipse cx="13.2" cy="10" rx="1.2" ry="1.8" fill="#c1c5cc" stroke="#20252c" stroke-width=".7"/><circle cx="6.9" cy="10.2" r=".45" fill="#20252c"/><circle cx="13.1" cy="10.2" r=".45" fill="#20252c"/><path d="m10 10.6-.7 3.3 1.4.1" fill="none" stroke="#7b828c" stroke-width=".65"/><path d="M5.1 16c2.9 2 6.9 2 9.8 0-.4 4.8-2.5 6.8-4.9 6.8S5.5 20.8 5.1 16Z" fill="#20252c"/><path d="M6 16.8c2.6 1.1 5.4 1.1 8 0l-.5 1.5h-7Z" fill="#f7f4ea"/>
</svg>
