<?xml version="1.0"?><svg xmlns="http://www.w3.org/2000/svg" width="20" height="26" viewBox="0 0 20 26"><title>Laugh compact bodycam face</title>
  <path d="M10 1C5.1 1 2.1 4.4 2.1 12c0 7.9 3.1 13 7.9 13s7.9-5.1 7.9-13C17.9 4.4 14.9 1 10 1Z" fill="#f7f4ea" stroke="#20252c" stroke-width="1.1"/><path d="M4.1 6.4c1.8-2.2 3.5-2.3 5.1-.7m1.6 0c1.6-1.6 3.3-1.5 5.1.7" fill="none" stroke="#20252c" stroke-width="1.1" stroke-linecap="round"/><path d="M4.8 10.4c1.4-1.9 3-1.9 4.4 0m1.6 0c1.4-1.9 3-1.9 4.4 0" fill="none" stroke="#20252c" stroke-width=".9" stroke-linecap="round"/><path d="m10 10.8-.7 2.7 1.4.1" fill="none" stroke="#7b828c" stroke-width=".65"/><path d="M5 14.5c3.1 1.8 6.9 1.8 10 0-.2 5.8-2.5 9-5 9s-4.8-3.2-5-9Z" fill="#20252c"/><path d="M6 15.4c2.7 1.1 5.3 1.1 8 0l-.5 1.8h-7Z" fill="#f7f4ea"/><path d="M7 20.5c2-1.3 4-1.3 6 0-.6 1.7-1.7 2.4-3 2.4s-2.4-.7-3-2.4Z" fill="#d85852"/>
</svg>
