<?xml version="1.0"?><svg xmlns="http://www.w3.org/2000/svg" width="20" height="26" viewBox="0 0 20 26"><title>Sad compact bodycam face</title>
  <path d="M10 1C5.1 1 2.1 4.4 2.1 12c0 7.9 3.1 13 7.9 13s7.9-5.1 7.9-13C17.9 4.4 14.9 1 10 1Z" fill="#f7f4ea" stroke="#20252c" stroke-width="1.1"/><path d="M4.2 6.8c1.7-1.2 3.3-1 4.9.7m1.8 0c1.6-1.7 3.2-1.9 4.9-.7" fill="none" stroke="#20252c" stroke-width="1.1" stroke-linecap="round"/><ellipse cx="7" cy="10.4" rx="1.2" ry="1.7" fill="#c1c5cc" stroke="#20252c" stroke-width=".7"/><ellipse cx="13" cy="10.4" rx="1.2" ry="1.7" fill="#c1c5cc" stroke="#20252c" stroke-width=".7"/><circle cx="7" cy="10.8" r=".45" fill="#20252c"/><circle cx="13" cy="10.8" r=".45" fill="#20252c"/><path d="m10 11.1-.7 3.1 1.4.1" fill="none" stroke="#7b828c" stroke-width=".65"/><path d="M6 20c2-3.1 6-3.1 8 0" fill="none" stroke="#20252c" stroke-width="1.2" stroke-linecap="round"/><path d="M7.5 20.7c1.6-1.2 3.4-1.2 5 0" fill="none" stroke="#c1c5cc" stroke-width=".45"/>
</svg>
