<?xml version="1.0"?><svg xmlns="http://www.w3.org/2000/svg" width="20" height="26" viewBox="0 0 20 26"><title>Scared compact bodycam face</title>
  <path d="M10 1C5.1 1 2.1 4.4 2.1 12c0 7.9 3.1 13 7.9 13s7.9-5.1 7.9-13C17.9 4.4 14.9 1 10 1Z" fill="#f7f4ea" stroke="#20252c" stroke-width="1.1"/><path d="M4.2 6.3C5.7 4.2 7.4 3.8 9.1 4.8m1.8 0c1.7-1 3.4-.6 4.9 1.5" fill="none" stroke="#20252c" stroke-width="1.1" stroke-linecap="round"/><ellipse cx="6.9" cy="9.9" rx="1.7" ry="2.4" fill="#f7f4ea" stroke="#20252c" stroke-width=".7"/><ellipse cx="13.1" cy="9.9" rx="1.7" ry="2.4" fill="#f7f4ea" stroke="#20252c" stroke-width=".7"/><circle cx="6.9" cy="10.2" r=".6" fill="#20252c"/><circle cx="13.1" cy="10.2" r=".6" fill="#20252c"/><path d="m10 11-.7 2.8 1.4.1" fill="none" stroke="#7b828c" stroke-width=".65"/><path d="M5.9 16.1c2.3-1.4 5.9-1.4 8.2 0l-.4 4.2c-2.2 1.1-5.2 1.1-7.4 0Z" fill="#20252c"/><path d="M6.8 16.8h6.4v1.2H6.8Zm.4 1.7h5.6v1.1H7.2Z" fill="#f7f4ea"/><path d="M8.3 16.8v2.8m1.7-2.8v2.8m1.7-2.8v2.8" stroke="#7b828c" stroke-width=".25"/>
</svg>
