<?xml version="1.0"?><svg xmlns="http://www.w3.org/2000/svg" width="20" height="26" viewBox="0 0 20 26"><title>Shout compact bodycam face</title>
  <path d="M10 1C5.1 1 2.1 4.4 2.1 12c0 7.9 3.1 13 7.9 13s7.9-5.1 7.9-13C17.9 4.4 14.9 1 10 1Z" fill="#f7f4ea" stroke="#20252c" stroke-width="1.1"/><path d="M4.2 6.3c1.6-2.2 3.3-2.6 5-1.3m1.6 0c1.7-1.3 3.4-.9 5 1.3" fill="none" stroke="#20252c" stroke-width="1.1" stroke-linecap="round"/><ellipse cx="7" cy="10" rx="1.2" ry="2.2" fill="#c1c5cc" stroke="#20252c" stroke-width=".7"/><ellipse cx="13" cy="10" rx="1.2" ry="2.2" fill="#c1c5cc" stroke="#20252c" stroke-width=".7"/><circle cx="7" cy="10.2" r=".45" fill="#20252c"/><circle cx="13" cy="10.2" r=".45" fill="#20252c"/><path d="m10 11-.7 2.7 1.4.1" fill="none" stroke="#7b828c" stroke-width=".65"/><ellipse cx="10" cy="19" rx="4.3" ry="5.3" fill="#20252c"/><path d="M7 16c2-.9 4-.9 6 0v1.3H7Z" fill="#f7f4ea"/><path d="M7.2 21.3c1.8-1.1 3.8-1.1 5.6 0-.5 1.8-1.5 2.5-2.8 2.5s-2.3-.7-2.8-2.5Z" fill="#d85852"/>
</svg>
