<?xml version="1.0"?><svg xmlns="http://www.w3.org/2000/svg" width="64" height="64" viewBox="0 0 64 64"><title>Think cloud balloon</title><defs><linearGradient id="p" x2="1" y2="1"><stop stop-color="#fffdf7"/><stop offset="1" stop-color="#ded7c9"/></linearGradient></defs>
  <path d="M13 45C5 44 2 37 5 31c-4-8 1-15 9-15 3-9 14-11 20-5 7-6 18-2 19 7 9 0 13 10 7 17 3 8-4 15-12 14H18c-3 0-4-2-5-4Z" fill="url(#p)" stroke="#20252c" stroke-width="4"/><circle cx="15" cy="55" r="5" fill="#c1c5cc" stroke="#20252c" stroke-width="3"/><circle cx="6" cy="61" r="2" fill="#7b828c"/><g fill="#7b828c"><circle cx="24" cy="31" r="4"/><circle cx="35" cy="31" r="4"/><circle cx="46" cy="31" r="4"/></g>
</svg>
