<?xml version="1.0"?><svg xmlns="http://www.w3.org/2000/svg" width="64" height="64" viewBox="0 0 64 64"><title>Whisper sound broken balloon</title>
  <path d="M9 8h46c5 0 8 3 8 8v26c0 5-3 8-8 8H39L27 60l3-10H9c-5 0-8-3-8-8V16c0-5 3-8 8-8Z" fill="#f7f4ea" fill-opacity=".86" stroke="#20252c" stroke-width="5" stroke-linecap="round" stroke-dasharray=".1 9"/><path d="M17 29h9l11-10v27L26 36h-9Z" fill="#3d78b8" stroke="#20252c" stroke-width="3"/><path d="M43 25c7 4 7 14 0 18m7-25c13 9 13 23 0 32" fill="none" stroke="#4d9e67" stroke-width="4" stroke-linecap="round" stroke-dasharray=".1 7"/><circle cx="14" cy="17" r="3" fill="#f3c744"/>
</svg>
