<?xml version="1.0" encoding="UTF-8"?>
<svg xmlns="http://www.w3.org/2000/svg" width="1024" height="1024" viewBox="0 0 256 256">
  <title>Comic Chat transcript document</title>
  <desc>Stacked folded paper sheets with a lower-left Armando portrait and ruled conversation lines.</desc>
  <defs>
    <linearGradient id="p" x1="0" y1="0" x2="1" y2="1"><stop stop-color="#fffdf7"/><stop offset=".65" stop-color="#f7f4ea"/><stop offset="1" stop-color="#ded7c9"/></linearGradient>
    <linearGradient id="f" x1="0" y1="0" x2="1" y2="1"><stop stop-color="#f7f4ea"/><stop offset=".55" stop-color="#c1c5cc"/><stop offset="1" stop-color="#7b828c"/></linearGradient>
    <linearGradient id="i" x1="0" y1="0" x2="1" y2="1"><stop stop-color="#3a424c"/><stop offset=".5" stop-color="#20252c"/><stop offset="1" stop-color="#101419"/></linearGradient>
    <pattern id="d" width="11" height="11" patternUnits="userSpaceOnUse"><circle cx="3" cy="3" r="1.25" fill="#b79927"/><circle cx="8.5" cy="8.5" r=".8" fill="#f3c744"/></pattern>
    <filter id="s" x="-30%" y="-30%" width="170%" height="180%"><feGaussianBlur in="SourceAlpha" stdDeviation="3.7"/><feOffset dy="4.5"/><feComponentTransfer><feFuncA type="linear" slope=".28"/></feComponentTransfer><feMerge><feMergeNode/><feMergeNode in="SourceGraphic"/></feMerge></filter>
  </defs>
  <g filter="url(#s)" stroke="#20252c" stroke-linejoin="round">
    <path d="M67 20H183l41 41v165H67Z" fill="url(#p)" stroke-width="8"/>
    <path d="M183 20v41h41" fill="url(#f)" stroke-width="7"/>
    <path d="M82 43h73M82 56h50" stroke="#7b828c" stroke-width="5" stroke-linecap="round"/>
    <path d="M31 55H156l37 37v144H31Z" fill="url(#p)" stroke-width="8"/>
    <path d="M156 55v37h37" fill="url(#f)" stroke-width="7"/>
    <path d="M38 68h111v28H38Z" fill="#f3c744" stroke="none" opacity=".86"/>
    <path d="M38 68h111v28H38Z" fill="url(#d)" stroke="none" opacity=".8"/>
    <g stroke="#7b828c" stroke-width="6" stroke-linecap="round"><path d="M105 113h55"/><path d="M105 133h55"/><path d="M105 153h42"/><path d="M105 173h51"/></g>
    <path d="M42 66V224H179" fill="none" stroke="#c1c5cc" stroke-width="3" opacity=".72"/>
  </g>
  <!-- Lower-left portrait: the same Armando identity, not a generic avatar badge. -->
  <g filter="url(#s)" stroke="#20252c" stroke-linecap="round" stroke-linejoin="round">
    <path d="M48 173 44 219c14 9 37 9 52 1l-8-43Z" fill="url(#i)" stroke-width="6"/>
    <path d="M58 137c-15 7-15 25-3 31 9 5 18 0 21-8-7 5-15 1-12-6 2-4 7-4 12-2" fill="url(#i)" stroke-width="6"/>
    <path d="M55 134c-13-22-3-45 18-58 15-9 35-10 49-2 6 4 7 9 6 14 11 3 20 9 25 18-10-4-18-3-25-1 8 4 13 9 16 15-9-4-17-5-24-3l5 9c-10-6-19-8-29-6-11 10-28 27-41 14Z" fill="url(#i)" stroke-width="7"/>
    <path d="M84 118c7-7 17-7 24-1 4 3 6 8 7 14l18 16c2 2 1 5-2 6l-13 3c3 5 2 9-2 12-3 2-6 2-9 2 2 5 0 10-4 13-3 3-6 4-10 4-2 3-5 5-9 6-13-7-17-19-15-38 1-16 6-31 15-37Z" fill="url(#p)" stroke-width="6.5"/>
    <path d="m78 120 5 8 4-7 5 7 5-8 5 7 5-7" fill="url(#i)" stroke-width="4"/>
    <path d="m89 127 13 2" fill="none" stroke-width="4"/><ellipse cx="101" cy="135" rx="7" ry="6" fill="#20252c" stroke-width="3.5"/><path d="m99 133 3-1" stroke="#c1c5cc" stroke-width="1.5"/>
    <path d="m105 155 8 2 10-2-3 7-6 3-6-3Z" fill="#20252c" stroke-width="1"/><path d="m109 157 4 1 6-1-2 3-4 1-3-1Z" fill="#f7f4ea" stroke="none"/><path d="M104 184c5 2 8 0 11-4 0 6-1 10-4 14-2-3-4-5-7-5Z" fill="#20252c" stroke-width="1"/>
  </g>
</svg>
