<?xml version="1.0" encoding="UTF-8"?>
<svg xmlns="http://www.w3.org/2000/svg" width="1024" height="1024" viewBox="0 0 1024 1024">
  <title>Microsoft Comic Chat application icon</title>
  <desc>Modern source-faithful rendering of Armando in front of a ruled halftone speech balloon.</desc>
  <defs>
    <linearGradient id="paper" x1="0" y1="0" x2="0.88" y2="1">
      <stop offset="0" stop-color="#fffdf7"/>
      <stop offset="0.62" stop-color="#f7f4ea"/>
      <stop offset="1" stop-color="#e7dfcf"/>
    </linearGradient>
    <linearGradient id="yellowWash" x1="0" y1="0" x2="0" y2="1">
      <stop offset="0" stop-color="#f8d96d" stop-opacity="0.96"/>
      <stop offset="0.78" stop-color="#f3c744" stop-opacity="0.35"/>
      <stop offset="1" stop-color="#f3c744" stop-opacity="0"/>
    </linearGradient>
    <linearGradient id="inkSheen" x1="0.08" y1="0" x2="0.92" y2="1">
      <stop offset="0" stop-color="#3a424c"/>
      <stop offset="0.22" stop-color="#20252c"/>
      <stop offset="0.72" stop-color="#101419"/>
      <stop offset="1" stop-color="#2b323a"/>
    </linearGradient>
    <linearGradient id="silver" x1="0" y1="0" x2="0" y2="1">
      <stop offset="0" stop-color="#e8e9eb"/>
      <stop offset="0.5" stop-color="#c1c5cc"/>
      <stop offset="1" stop-color="#7b828c"/>
    </linearGradient>
    <radialGradient id="lens" cx="0.3" cy="0.24" r="0.82">
      <stop offset="0" stop-color="#c1c5cc"/>
      <stop offset="0.2" stop-color="#59616b"/>
      <stop offset="0.58" stop-color="#20252c"/>
      <stop offset="1" stop-color="#0e1217"/>
    </radialGradient>
    <pattern id="dots" width="44" height="44" patternUnits="userSpaceOnUse" patternTransform="rotate(-5)">
      <circle cx="12" cy="12" r="6.5" fill="#b79927" opacity="0.68"/>
      <circle cx="34" cy="34" r="4" fill="#f3c744" opacity="0.72"/>
    </pattern>
    <filter id="shadow" x="-30%" y="-30%" width="160%" height="170%">
      <feGaussianBlur in="SourceAlpha" stdDeviation="14" result="blur"/>
      <feOffset dx="0" dy="17" result="offset"/>
      <feColorMatrix in="offset" values="0 0 0 0 0.08 0 0 0 0 0.1 0 0 0 0 0.12 0 0 0 .27 0"/>
      <feMerge><feMergeNode/><feMergeNode in="SourceGraphic"/></feMerge>
    </filter>
    <filter id="softInset" x="-20%" y="-20%" width="140%" height="140%">
      <feGaussianBlur stdDeviation="3.5"/>
    </filter>
    <clipPath id="balloonClip">
      <path d="M241 109H817C868 109 909 150 909 201V653C909 704 868 745 817 745H764L704 842L714 745H241C190 745 149 704 149 653V201C149 150 190 109 241 109Z"/>
    </clipPath>
  </defs>

  <!-- Ruled yellow-halftone speech balloon, preserving the source composition. -->
  <g filter="url(#shadow)">
    <path d="M241 109H817C868 109 909 150 909 201V653C909 704 868 745 817 745H764L704 842L714 745H241C190 745 149 704 149 653V201C149 150 190 109 241 109Z"
      fill="url(#paper)" stroke="#20252c" stroke-width="32" stroke-linejoin="round"/>
    <path d="M241 128H817C857 128 890 161 890 201V647C890 687 857 720 817 720H752L726 762L731 720H241C201 720 168 687 168 647V201C168 161 201 128 241 128Z"
      fill="none" stroke="#c1c5cc" stroke-width="12" opacity="0.9"/>
    <g clip-path="url(#balloonClip)">
      <rect x="164" y="124" width="730" height="390" fill="url(#yellowWash)"/>
      <rect x="165" y="126" width="728" height="365" fill="url(#dots)" opacity="0.75"/>
      <path d="M181 161C367 119 677 127 875 169" fill="none" stroke="#fffdf7" stroke-width="16" opacity="0.45"/>
      <path d="M184 687C394 722 686 722 877 676" fill="none" stroke="#7b828c" stroke-width="18" opacity="0.12" filter="url(#softInset)"/>
    </g>
    <g fill="url(#silver)" stroke="#20252c" stroke-width="10" stroke-linejoin="round">
      <rect x="596" y="424" width="241" height="31" rx="15.5"/>
      <rect x="596" y="506" width="241" height="31" rx="15.5"/>
      <rect x="596" y="588" width="192" height="31" rx="15.5"/>
    </g>
    <path d="M614 433H819" fill="none" stroke="#fff" stroke-width="5" stroke-linecap="round" opacity="0.45"/>
  </g>

  <!-- Armando. Geometry follows his authored AVB icon pose and west face frame. -->
  <g filter="url(#shadow)" stroke="#20252c" stroke-linecap="round" stroke-linejoin="round">
    <!-- tiny shoulder wedge and long neck -->
    <path d="M281 774L268 913C331 949 426 957 500 922L466 798Z" fill="url(#inkSheen)" stroke-width="27"/>
    <path d="M348 674C343 730 337 786 329 836C362 857 403 861 434 846L446 684Z" fill="url(#paper)" stroke-width="24"/>
    <path d="M356 690C356 744 352 789 346 816" fill="none" stroke="#c1c5cc" stroke-width="11" opacity="0.7"/>

    <!-- rear curl and large soft beret/fringe mass -->
    <path d="M249 533C180 568 175 646 229 681C266 705 310 683 325 647C294 673 253 660 253 628C253 597 285 580 314 593"
      fill="url(#inkSheen)" stroke-width="25"/>
    <path d="M218 467C157 370 198 261 290 199C351 158 433 146 506 174C541 187 564 212 561 245C604 259 646 288 674 327C634 312 594 308 556 318C603 345 630 372 648 407C604 386 570 375 529 379C552 399 562 420 565 444C528 414 493 397 451 395C413 431 374 468 329 508C287 544 242 522 218 467Z"
      fill="url(#inkSheen)" stroke-width="28"/>
    <path d="M244 392C272 266 398 184 520 206" fill="none" stroke="#59616b" stroke-width="13" opacity="0.5"/>
    <path d="M238 260C208 236 179 242 164 266C194 258 216 270 235 291" fill="url(#inkSheen)" stroke-width="22"/>

    <!-- long authored profile -->
    <path d="M388 369C421 338 469 335 501 359C522 376 534 398 540 426L570 451L596 478L628 507L646 522C656 532 651 544 638 548L578 561C591 581 594 599 585 616C575 634 554 641 531 642C542 665 537 691 520 712C505 730 485 741 463 743C451 759 435 773 416 780C378 764 352 741 338 709C322 674 319 631 323 582C327 516 345 423 388 369Z"
      fill="url(#paper)" stroke-width="27"/>
    <path d="M603 499 641 531 580 547" fill="none" stroke="#c1c5cc" stroke-width="9" opacity="0.78"/>
    <path d="M334 585C325 505 346 423 389 372" fill="none" stroke="#fff" stroke-width="9" opacity="0.62"/>

    <!-- one visible lens, eye relationship and hooked nose bridge -->
    <path d="M438 421C454 398 482 396 503 414" fill="none" stroke-width="14"/>
    <path d="M444 409 485 417" fill="none" stroke="#20252c" stroke-width="13"/>
    <ellipse cx="477" cy="448" rx="31" ry="27" fill="url(#lens)" stroke-width="14"/>
    <path d="M447 448H397" fill="none" stroke-width="13"/>
    <path d="M507 445C532 444 553 455 570 470" fill="none" stroke-width="13"/>
    <path d="M461 435 473 430" fill="none" stroke="#f7f4ea" stroke-width="6" opacity="0.72"/>
    <path d="M485 444 493 450" fill="none" stroke="#3d78b8" stroke-width="5" opacity="0.52"/>

    <!-- compact open smile and source-like tooth rhythm -->
    <path d="M489 565 520 570 562 563 551 588 526 600 503 589Z" fill="#20252c" stroke-width="11"/>
    <path d="m501 572 20 3 27-4-6 10-17 7-18-6Z" fill="#f7f4ea" stroke="none"/>
    <path d="M522 575v12M500 612l24 5 29-6" fill="none" stroke-width="10"/>

    <!-- narrow chin and thin pointed goatee -->
    <path d="M473 741C491 747 506 739 518 722C521 744 516 766 507 787C499 773 488 764 475 760Z" fill="url(#inkSheen)" stroke-width="14"/>
    <path d="M509 777C517 794 516 812 507 828" fill="none" stroke-width="11"/>

    <!-- authored fringe separates cap from forehead -->
    <path d="M367 371C383 389 392 407 395 430L418 392L437 419L460 381L483 407L507 373L529 394" fill="url(#inkSheen)" stroke-width="18"/>
    <path d="M223 546C250 527 279 527 303 541" fill="none" stroke="#59616b" stroke-width="9" opacity="0.55"/>
  </g>
</svg>
