<?xml version="1.0" encoding="UTF-8"?>
<svg xmlns="http://www.w3.org/2000/svg" width="1024" height="1024" viewBox="0 0 256 256">
  <title>Connect to Comic Chat network</title>
  <desc>Marked network globe on a stable pedestal stand.</desc>
  <defs>
    <radialGradient id="o" cx=".32" cy=".25" r=".82"><stop stop-color="#86c8d9"/><stop offset=".4" stop-color="#3d78b8"/><stop offset="1" stop-color="#244b72"/></radialGradient>
    <linearGradient id="g" x1="0" y1="0" x2="1" y2="1"><stop stop-color="#7bbc88"/><stop offset=".55" stop-color="#4d9e67"/><stop offset="1" stop-color="#2f704c"/></linearGradient>
    <linearGradient id="stand" x1="0" y1="0" x2="1" y2="1"><stop stop-color="#fff1a3"/><stop offset=".45" stop-color="#f3c744"/><stop offset="1" stop-color="#a47f16"/></linearGradient>
    <filter id="s" x="-30%" y="-30%" width="170%" height="180%"><feGaussianBlur in="SourceAlpha" stdDeviation="4"/><feOffset dy="5"/><feComponentTransfer><feFuncA type="linear" slope=".3"/></feComponentTransfer><feMerge><feMergeNode/><feMergeNode in="SourceGraphic"/></feMerge></filter>
    <clipPath id="c"><circle cx="128" cy="96" r="74"/></clipPath>
  </defs>
  <g filter="url(#s)" stroke="#20252c" stroke-linejoin="round">
    <circle cx="128" cy="96" r="79" fill="url(#o)" stroke-width="9"/>
    <g clip-path="url(#c)">
      <path d="M65 61c15-21 35-32 56-34l13 12-10 11 7 13-15 10-7 18-18 1-8-13-18-3Zm82-30 25 5 8 14 16 7 7 18-14 8-10-9-13 8-13-10 5-14-14-9Zm-28 86 14-9 18 4 7 16-9 12 2 23-15 23-15-16 4-18-10-14Z" fill="url(#g)" stroke-width="3.5"/>
      <g fill="none" stroke="#f7f4ea" stroke-width="2.8" opacity=".55"><ellipse cx="128" cy="96" rx="38" ry="74"/><ellipse cx="128" cy="96" rx="15" ry="74"/><path d="M54 96h148M66 61c39 14 86 14 124 0M66 131c39-14 86-14 124 0"/></g>
      <path d="M73 44c29-19 70-22 105-4" fill="none" stroke="#fff" stroke-width="6" opacity=".32"/>
    </g>
    <!-- network marks, intentionally restrained and source-like -->
    <g fill="#f7f4ea" stroke="#20252c" stroke-width="4"><circle cx="82" cy="77" r="6"/><circle cx="149" cy="57" r="6"/><circle cx="170" cy="112" r="6"/></g>
    <path d="M87 76 144 59m9 4 14 43M87 82l76 27" fill="none" stroke="#d85852" stroke-width="4" opacity=".88"/>
    <!-- marked globe pedestal -->
    <path d="M111 170h34v39h-34Z" fill="url(#stand)" stroke-width="8"/>
    <path d="M79 208h98l20 27H59Z" fill="url(#stand)" stroke-width="9"/>
    <path d="M82 216h91" stroke="#fff1a3" stroke-width="5" opacity=".65"/>
  </g>
</svg>
