<?xml version="1.0" encoding="UTF-8"?>
<svg xmlns="http://www.w3.org/2000/svg" width="1024" height="1024" viewBox="0 0 256 256">
  <title>Connect to Comic Chat server</title>
  <desc>Server monitor and terminal with a substantial hardware base and status light.</desc>
  <defs>
    <linearGradient id="case" x1="0" y1="0" x2="1" y2="1"><stop stop-color="#f7f4ea"/><stop offset=".5" stop-color="#c1c5cc"/><stop offset="1" stop-color="#7b828c"/></linearGradient>
    <radialGradient id="screen" cx=".36" cy=".28" r=".8"><stop stop-color="#80b7e5"/><stop offset=".42" stop-color="#3d78b8"/><stop offset="1" stop-color="#183653"/></radialGradient>
    <filter id="s" x="-30%" y="-30%" width="170%" height="180%"><feGaussianBlur in="SourceAlpha" stdDeviation="4"/><feOffset dy="5"/><feComponentTransfer><feFuncA type="linear" slope=".3"/></feComponentTransfer><feMerge><feMergeNode/><feMergeNode in="SourceGraphic"/></feMerge></filter>
  </defs>
  <g filter="url(#s)" stroke="#20252c" stroke-linejoin="round">
    <path d="M32 24h192v148H32Z" fill="url(#case)" stroke-width="10"/>
    <path d="M50 45h156v102H50Z" fill="#20252c" stroke-width="7"/>
    <path d="M59 54h138v84H59Z" fill="url(#screen)" stroke="none"/>
    <path d="M67 63h121" stroke="#fff" stroke-width="5" opacity=".35"/>
    <g fill="none" stroke="#d9f0ff" stroke-width="5" stroke-linecap="round"><path d="m76 82 12 10-12 10"/><path d="M98 102h39"/><path d="M76 119h84"/></g>
    <path d="M80 172h96l13 26H67Z" fill="url(#case)" stroke-width="9"/>
    <path d="M24 197h208v39H24Z" fill="url(#case)" stroke-width="10"/>
    <rect x="45" y="209" width="18" height="14" rx="3" fill="#4d9e67" stroke-width="4"/>
    <path d="M88 217h89M194 217h18" stroke="#7b828c" stroke-width="6" stroke-linecap="round"/>
    <path d="M39 35h169" stroke="#fff" stroke-width="5" opacity=".55"/>
  </g>
</svg>
